<svg width="40" height="40" viewBox="0 0 40 40" fill="none" xmlns="http://www.w3.org/2000/svg">
<g clip-path="url(#clip0_2945_3701)">
<path d="M20 0C14.6957 2.41106e-07 9.60859 2.10714 5.85786 5.85786C2.10714 9.60859 2.41106e-07 14.6957 0 20C2.41106e-07 25.3043 2.10714 30.3914 5.85786 34.1421C9.60859 37.8929 14.6957 40 20 40C25.3043 40 30.3914 37.8929 34.1421 34.1421C37.8929 30.3914 40 25.3043 40 20C40 14.6957 37.8929 9.60859 34.1421 5.85786C30.3914 2.10714 25.3043 2.41106e-07 20 0ZM11.6921 10.6499H28.3079C28.8534 10.6499 29.3595 10.8234 29.7798 11.1151C27.1131 13.5931 23.4109 17.101 20.6836 19.6094C20.3295 19.935 19.7189 19.9343 19.3572 19.6058L10.2202 11.1151C10.6405 10.8234 11.1466 10.6499 11.6921 10.6499ZM9.17614 12.6243L18.1321 20.9482C19.1986 21.9168 20.8518 21.925 21.9176 20.9446C24.5649 18.4873 28.1106 15.1675 30.8239 12.6243C30.8743 12.8247 30.909 13.0308 30.909 13.2457V26.7543C30.909 28.1769 29.7338 29.3501 28.3078 29.3501H11.6921C10.2661 29.3501 9.09091 28.1769 9.09091 26.7543V13.2457C9.09091 13.0308 9.12568 12.8247 9.17614 12.6243Z" fill="#FCFFFF"/>
</g>
<defs>
<clipPath id="clip0_2945_3701">
<rect width="40" height="40" fill="white"/>
</clipPath>
</defs>
</svg>
