<svg width="40" height="40" viewBox="0 0 40 40" fill="none" xmlns="http://www.w3.org/2000/svg">
<g clip-path="url(#clip0_2945_3693)">
<path d="M19.9984 24.0038C22.2049 24.0038 24.0038 22.2081 24.0038 20C24.0038 19.1283 23.7186 18.3235 23.2466 17.6661C22.5191 16.6575 21.3365 15.9961 20.0008 15.9961C18.6643 15.9961 17.4824 16.6567 16.7534 17.6653C16.2797 18.3227 15.9969 19.1275 15.9961 19.9992C15.9937 22.2073 17.791 24.0038 19.9984 24.0038Z" fill="#FCFFFF"/>
<path d="M28.7432 15.1017V11.7456V11.2461L28.2413 11.2477L24.8867 11.2582L24.8996 15.1146L28.7432 15.1017Z" fill="#FCFFFF"/>
<path d="M20 0C8.97205 0 0 8.97205 0 20C0 31.0271 8.97205 40 20 40C31.0271 40 40 31.0271 40 20C40 8.97205 31.0288 0 20 0ZM31.3744 17.6662V26.979C31.3744 29.4047 29.4022 31.376 26.9782 31.376H13.0218C10.597 31.376 8.62563 29.4047 8.62563 26.979V17.6662V13.0226C8.62563 10.5978 10.597 8.62644 13.0218 8.62644H26.9774C29.4022 8.62644 31.3744 10.5978 31.3744 13.0226V17.6662Z" fill="#FCFFFF"/>
<path d="M26.2224 19.9999C26.2224 23.4293 23.4318 26.2216 20.0007 26.2216C16.5697 26.2216 13.7798 23.4293 13.7798 19.9999C13.7798 19.1749 13.9442 18.3862 14.2374 17.666H10.8418V26.9788C10.8418 28.1824 11.819 29.1572 13.0218 29.1572H26.9773C28.1785 29.1572 29.1573 28.1824 29.1573 26.9788V17.666H25.76C26.0557 18.3862 26.2224 19.1749 26.2224 19.9999Z" fill="#FCFFFF"/>
</g>
<defs>
<clipPath id="clip0_2945_3693">
<rect width="40" height="40" fill="white"/>
</clipPath>
</defs>
</svg>
