<svg width="40" height="40" viewBox="0 0 40 40" fill="none" xmlns="http://www.w3.org/2000/svg">
<g clip-path="url(#clip0_2945_3685)">
<path d="M20 0C8.95433 0 0 8.95433 0 20C0 31.0457 8.95433 40 20 40C31.0457 40 40 31.0457 40 20C40 8.95433 31.0457 0 20 0ZM14.472 30.365H9.63479V16.545H14.472V30.365ZM12.0534 14.472C11.575 14.472 11.1074 14.3302 10.7097 14.0644C10.312 13.7986 10.002 13.4209 9.8189 12.979C9.63584 12.537 9.58794 12.0507 9.68126 11.5815C9.77459 11.1124 10.0049 10.6814 10.3432 10.3432C10.6814 10.0049 11.1124 9.77459 11.5815 9.68126C12.0507 9.58794 12.537 9.63584 12.979 9.8189C13.4209 10.002 13.7986 10.312 14.0644 10.7097C14.3302 11.1074 14.472 11.575 14.472 12.0534C14.472 12.6948 14.2172 13.31 13.7636 13.7636C13.3101 14.2171 12.6948 14.472 12.0534 14.472ZM30.3649 30.365H26.2191V23.6313C26.2191 22.0252 26.0408 19.9594 23.8396 19.9594C21.6047 19.9594 21.2629 21.7088 21.2629 23.5149V30.365H17.236V16.545H21.0891V18.4101H21.1485C21.7221 17.3212 23.1244 16.545 25.2136 16.545C29.5606 16.545 30.365 19.0408 30.365 22.7701L30.3649 30.365Z" fill="#FCFFFF"/>
</g>
<defs>
<clipPath id="clip0_2945_3685">
<rect width="40" height="40" fill="white"/>
</clipPath>
</defs>
</svg>
